<?xml version="1.0" encoding="utf-8"?>
<!-- Generator: Adobe Illustrator 21.1.0, SVG Export Plug-In . SVG Version: 6.00 Build 0)  -->
<!DOCTYPE svg PUBLIC "-//W3C//DTD SVG 1.1//EN" "http://www.w3.org/Graphics/SVG/1.1/DTD/svg11.dtd" [
	<!ENTITY ns_extend "http://ns.adobe.com/Extensibility/1.0/">
	<!ENTITY ns_ai "http://ns.adobe.com/AdobeIllustrator/10.0/">
	<!ENTITY ns_graphs "http://ns.adobe.com/Graphs/1.0/">
	<!ENTITY ns_vars "http://ns.adobe.com/Variables/1.0/">
	<!ENTITY ns_imrep "http://ns.adobe.com/ImageReplacement/1.0/">
	<!ENTITY ns_sfw "http://ns.adobe.com/SaveForWeb/1.0/">
	<!ENTITY ns_custom "http://ns.adobe.com/GenericCustomNamespace/1.0/">
	<!ENTITY ns_adobe_xpath "http://ns.adobe.com/XPath/1.0/">
]>
<svg version="1.1" id="Layer_1" xmlns:x="&ns_extend;" xmlns:i="&ns_ai;" xmlns:graph="&ns_graphs;"
	 xmlns="http://www.w3.org/2000/svg" xmlns:xlink="http://www.w3.org/1999/xlink" x="0px" y="0px" width="18px" height="18px"
	 viewBox="0 0 18 18" style="enable-background:new 0 0 18 18;" xml:space="preserve">
<style type="text/css">
	.st0{fill-rule:evenodd;clip-rule:evenodd;fill:#FF907F;}
</style>
<metadata>
	<sfw  xmlns="&ns_sfw;">
		<slices></slices>
		<sliceSourceBounds  bottomLeftOrigin="true" height="16.6" width="17" x="0.5" y="0.7"></sliceSourceBounds>
	</sfw>
</metadata>
<path class="st0" d="M9,0.7c-4.7,0-8.5,3.8-8.5,8.5c0,3.8,2.4,6.9,5.8,8.1c0.4,0.1,0.6-0.2,0.6-0.4c0-0.2,0-0.7,0-1.4
	C4.5,15.9,4,14.3,4,14.3c-0.4-1-0.9-1.2-0.9-1.2c-0.8-0.5,0.1-0.5,0.1-0.5c0.9,0.1,1.3,0.9,1.3,0.9c0.8,1.3,2,0.9,2.5,0.7
	C7,13.6,7.2,13.2,7.4,13C5.6,12.8,3.6,12,3.6,8.8c0-0.9,0.3-1.7,0.9-2.3C4.4,6.3,4.1,5.4,4.5,4.2c0,0,0.7-0.2,2.3,0.9
	C7.6,4.9,8.3,4.8,9,4.8c0.7,0,1.4,0.1,2.1,0.3c1.6-1.1,2.3-0.9,2.3-0.9c0.5,1.2,0.2,2,0.1,2.2c0.5,0.6,0.9,1.4,0.9,2.3
	c0,3.3-2,4-3.9,4.2c0.3,0.3,0.6,0.8,0.6,1.6c0,1.1,0,2.1,0,2.3c0,0.2,0.2,0.5,0.6,0.4c3.4-1.1,5.8-4.3,5.8-8.1
	C17.5,4.5,13.7,0.7,9,0.7z"/>
</svg>
